<svg id="Ebene_2" data-name="Ebene 2" xmlns="http://www.w3.org/2000/svg" viewBox="0 0 60 60"><defs><style>.cls-1{fill:#5B5D5D;}.cls-2{fill:none;stroke:#5B5D5D;stroke-miterlimit:10;}</style></defs><title>bankdaten</title><path class="cls-1" d="M42.81,14.07a3,3,0,0,1,3,3V35a3,3,0,0,1-3,3H14.55a3,3,0,0,1-3-3v-18a3,3,0,0,1,3-3H42.81m0-1H14.55a4,4,0,0,0-4,4V35a4,4,0,0,0,4,4H42.81a4,4,0,0,0,4-4v-18a4,4,0,0,0-4-4Z"/><path class="cls-2" d="M46.21,20l3.17,17.54a3.94,3.94,0,0,1-3.19,4.55L19.32,46.87a3.94,3.94,0,0,1-4.55-3.19l-.94-5.35"/><rect class="cls-1" x="10.99" y="19.08" width="35.06" height="4.44"/><line class="cls-2" x1="16.64" y1="27.02" x2="30.55" y2="27.02"/></svg>
