<svg id="Ebene_2" data-name="Ebene 2" xmlns="http://www.w3.org/2000/svg" viewBox="0 0 60 60"><defs><style>.cls-1{fill:#5B5D5D;}</style></defs><title>bonusnacherfassen</title><g id="einkauf_nacherfassen"><path class="cls-1" d="M28.43,17.31c-3.61,0-6.53,3.6-6.53,8s2.92,8,6.53,8,6.53-3.6,6.53-8S32,17.31,28.43,17.31Zm0,15.06c-3,0-5.53-3.15-5.53-7s2.48-7,5.53-7,5.53,3.15,5.53,7S31.48,32.38,28.43,32.38Z"/><path class="cls-1" d="M16.27,23.66A1.69,1.69,0,1,0,18,25.35,1.69,1.69,0,0,0,16.27,23.66Zm0,2.38a.69.69,0,1,1,.69-.69A.69.69,0,0,1,16.27,26Z"/><path class="cls-1" d="M40.68,23.66a1.69,1.69,0,1,0,1.69,1.69A1.69,1.69,0,0,0,40.68,23.66Zm0,2.38a.69.69,0,1,1,.69-.69A.69.69,0,0,1,40.68,26Z"/><path class="cls-1" d="M50,11.68H13V14.3H10V36.39H25.49v3.93l-5.7,0L28.52,49l8.73-8.73-5.32,0V36.39H47V33.76h3Zm-4,5.85a1.58,1.58,0,0,1-2.24-2.23H46ZM43,18.22a2.55,2.55,0,0,0,2.93.5V32a2.57,2.57,0,0,0-3.43,3.42H14.43A2.57,2.57,0,0,0,11,32V18.72a2.57,2.57,0,0,0,3.43-3.42h28.1A2.58,2.58,0,0,0,43,18.22ZM13.24,15.3A1.58,1.58,0,0,1,11,17.53V15.3ZM11,33.16a1.58,1.58,0,0,1,2.24,2.23H11Zm23.83,8.15-6.31,6.31-6.31-6.31h4.28V36.39h4.44v4.94Zm8.89-5.92A1.58,1.58,0,0,1,46,33.16v2.23ZM49,32.76H47V14.3H14V12.68H49Z"/></g></svg>
