<svg id="Ebene_2" data-name="Ebene 2" xmlns="http://www.w3.org/2000/svg" viewBox="0 0 64 64"><defs><style>.cls-1{fill:#1e1e1c;}</style></defs><title>datenschutz</title><path class="cls-1" d="M47.65,13V31.49c0,8.87-4.83,14.87-15.65,19.43C21.18,46.36,16.35,40.35,16.35,31.49V13h31.3m1-1H15.35V31.49C15.35,42,21.89,47.83,32,52c10.11-4.17,16.65-10,16.65-20.51V12ZM32,52h0Z"/><path class="cls-1" d="M32,22.77a3.44,3.44,0,0,1,2.14,6.15l-.45.36.09.57,1.13,7.38H29.09l1.13-7.38.09-.57-.45-.36A3.44,3.44,0,0,1,32,22.77m0-1a4.44,4.44,0,0,0-2.76,7.94l-1.31,8.53h8.14L34.76,29.7A4.44,4.44,0,0,0,32,21.77Z"/></svg>