<svg id="Ebene_2" data-name="Ebene 2" xmlns="http://www.w3.org/2000/svg" viewBox="0 0 60 60"><defs><style>.cls-1{fill:none;stroke:#5B5D5D;stroke-miterlimit:10;}</style></defs><title>einstellungen</title><g id="einstellungen"><path class="cls-1" d="M49.31,32.41V27.59l-5.79-.29a13.32,13.32,0,0,0-2.1-4.9l3.93-4.35-3.41-3.41-4.44,4a13.3,13.3,0,0,0-4.79-1.84l-.31-6.13H27.59L27.27,17a13.32,13.32,0,0,0-4.45,2l-4.77-4.32-3.41,3.41L19,22.92a13.3,13.3,0,0,0-1.75,4.34l-6.6.33v4.83l6.6.33A13.3,13.3,0,0,0,19,37.08l-4.41,4.87,3.41,3.41L22.82,41a13.32,13.32,0,0,0,4.45,2l.31,6.3h4.83l.31-6.13a13.3,13.3,0,0,0,4.79-1.84l4.44,4,3.41-3.41L41.43,37.6a13.32,13.32,0,0,0,2.1-4.9Z"/><circle class="cls-1" cx="30.4" cy="30" r="6.44"/></g></svg>
