<svg id="Ebene_2" data-name="Ebene 2" xmlns="http://www.w3.org/2000/svg" viewBox="0 0 64 64"><defs><style>.cls-1{fill:none;stroke:#1e1e1c;stroke-miterlimit:10;}</style></defs><title>impressum</title><path class="cls-1" d="M24.58,23.46a9.37,9.37,0,0,0-1.2,4.25c-.11,2.9,1.36,5.34,4.26,7C29.77,36,32.87,36.83,34.79,38c2.48,1.49,3.75,3.51,3.75,6a7.53,7.53,0,1,1-15.06,0"/><path class="cls-1" d="M37.34,40.54a9.37,9.37,0,0,0,1.2-4.25c.11-2.9-1.36-5.34-4.26-7C32.15,28,29,27.17,27.12,26c-2.48-1.49-3.75-3.51-3.75-6a7.53,7.53,0,1,1,15.06,0"/></svg>