<svg id="Ebene_2" data-name="Ebene 2" xmlns="http://www.w3.org/2000/svg" viewBox="0 0 60 60"><defs><style>.cls-1{fill:#E61B5A;}</style></defs><title>map</title><g id="map"><path class="cls-1" d="M36.64,11.1a5.46,5.46,0,0,1,5.46,5.46c0,4.53-3.79,10.14-5.46,12.39-1.67-2.25-5.46-7.86-5.46-12.39a5.46,5.46,0,0,1,5.46-5.46m0-1a6.46,6.46,0,0,0-6.46,6.46c0,6.22,6.46,14,6.46,14s6.46-7.81,6.46-14a6.46,6.46,0,0,0-6.46-6.46Z"/><path class="cls-1" d="M36.82,15.59a1.88,1.88,0,1,1-1.88,1.88,1.88,1.88,0,0,1,1.88-1.88m0-1a2.88,2.88,0,1,0,2.88,2.88,2.88,2.88,0,0,0-2.88-2.88Z"/><path class="cls-1" d="M44.75,15.21q0,.55-.07,1.12l4.26,2.47V48.55L37.13,42V32.63h-1V42L23.92,48.62V18.8l4.66-2.59c0-.37-.06-.74-.06-1.11l-5.1,2.83L10,10.22V42.59L23.54,50l13.09-7.1,13.31,7.38v-32ZM22.92,48.49,11,42v-30L22.92,18.8Z"/></g></svg>
