<svg id="Ebene_2" data-name="Ebene 2" xmlns="http://www.w3.org/2000/svg" viewBox="0 0 60 60"><defs><style>.cls-1{fill:#5B5D5D;}</style></defs><title>mapmarker_crossed</title><path class="cls-1" d="M22.69,37c-2.35-4.55-4.3-9.71-4.3-14.35a11.6,11.6,0,0,1,22.54-3.88l.78-.78a12.61,12.61,0,0,0-24.32,4.67c0,4.93,2.08,10.38,4.55,15.1Z"/><path class="cls-1" d="M29.7,30l1-1c-.11,0-.21,0-.33,0A4.63,4.63,0,1,1,35,24.38c0,.11,0,.22,0,.33l1-1A5.62,5.62,0,1,0,29.7,30Z"/><rect class="cls-1" x="2.37" y="29.61" width="55.27" height="1" transform="translate(-12.5 30.03) rotate(-45)"/><path class="cls-1" d="M41.49,21a11,11,0,0,1,.12,1.58c0,9.92-8.9,22.25-11.61,25.77a82.11,82.11,0,0,1-6.3-9.56l-.74.74A79.73,79.73,0,0,0,30,50S42.61,34.75,42.61,22.61a12.51,12.51,0,0,0-.25-2.45Z"/></svg>
