<svg id="Ebene_2" data-name="Ebene 2" xmlns="http://www.w3.org/2000/svg" viewBox="0 0 60 60"><defs><style>.cls-1{fill:#5B5D5D;}</style></defs><title>mapmarker</title><g id="mapmarker"><path class="cls-1" d="M30,11A11.62,11.62,0,0,1,41.61,22.61c0,9.92-8.9,22.25-11.61,25.77-2.71-3.52-11.61-15.85-11.61-25.77A11.62,11.62,0,0,1,30,11m0-1A12.61,12.61,0,0,0,17.39,22.61C17.39,34.75,30,50,30,50S42.61,34.75,42.61,22.61A12.61,12.61,0,0,0,30,10Z"/><path class="cls-1" d="M30.36,19.75a4.63,4.63,0,1,1-4.62,4.63,4.63,4.63,0,0,1,4.63-4.62m0-1A5.63,5.63,0,1,0,36,24.38a5.62,5.62,0,0,0-5.62-5.62Z"/></g></svg>
