<svg id="Ebene_2" data-name="Ebene 2" xmlns="http://www.w3.org/2000/svg" viewBox="0 0 60 60"><defs><style>.cls-1{fill:none;stroke:#FFFFFF;stroke-miterlimit:10;}</style></defs><title>muenzen</title><g id="muenzen"><ellipse class="cls-1" cx="21.92" cy="28.3" rx="11.41" ry="3.89"/><path class="cls-1" d="M33.33,44.8c0,2.15-5.11,3.89-11.41,3.89S10.5,46.95,10.5,44.8"/><line class="cls-1" x1="10.5" y1="44.85" x2="10.5" y2="28.35"/><line class="cls-1" x1="33.33" y1="44.83" x2="33.33" y2="28.36"/><path class="cls-1" d="M33.33,34.15c0,2.15-5.11,3.89-11.41,3.89S10.5,36.3,10.5,34.15"/><path class="cls-1" d="M33.33,40a1.37,1.37,0,0,1,0,.33c-.49,2-5.4,3.55-11.37,3.55-6.3,0-11.41-1.74-11.41-3.89"/><ellipse class="cls-1" cx="38.09" cy="15.2" rx="11.41" ry="3.89"/><line class="cls-1" x1="26.68" y1="24.75" x2="26.68" y2="15.25"/><line class="cls-1" x1="49.5" y1="38.95" x2="49.5" y2="15.31"/><path class="cls-1" d="M49.5,21.05c0,2.15-5.11,3.89-11.41,3.89S26.67,23.2,26.67,21.05"/><path class="cls-1" d="M49.5,26.9c0,2.15-5.11,3.89-11.41,3.89a31.05,31.05,0,0,1-4.76-.35"/><path class="cls-1" d="M49.5,32.76c0,2.15-5.11,3.89-11.41,3.89a31.05,31.05,0,0,1-4.76-.35"/><path class="cls-1" d="M49.5,38.61c0,2.15-5.11,3.89-11.41,3.89a31,31,0,0,1-4.76-.35"/></g></svg>
