<svg id="Ebene_2" data-name="Ebene 2" xmlns="http://www.w3.org/2000/svg" viewBox="0 0 60 60"><defs><style>.cls-1{fill:none;stroke:#5B5D5D;stroke-miterlimit:10;}</style></defs><title>onlinepartner</title><g id="onlinepartner"><path class="cls-1" d="M50,13.58l-6.19,1.28a2.9,2.9,0,0,1-2.58-.73h0a5.87,5.87,0,0,0-6.78-.9L20.69,20.58a.76.76,0,0,0-.24,1.16,7.81,7.81,0,0,0,8.79,2.34l2.36-1.22a4,4,0,0,1,4.7.79l7.3,7.66a2.18,2.18,0,0,0,2,.64L50,31.16"/><path class="cls-1" d="M10.22,13l4.88,1.85a9.84,9.84,0,0,0,3.42.61H30"/><path class="cls-1" d="M43.9,31.57l.89.89a2.44,2.44,0,0,1-3.45,3.45l-.73-.73"/><path class="cls-1" d="M40.62,35.2l.89.89a2.44,2.44,0,0,1-3.45,3.45l-.73-.73"/><path class="cls-1" d="M37.34,38.79l.89.89a2.44,2.44,0,0,1-3.45,3.45l-.73-.73"/><path class="cls-1" d="M34,42.41l.89.89a2.44,2.44,0,0,1-3.45,3.45L30.75,46l-2.18-2.18"/><path class="cls-1" d="M27.92,44.43A2.44,2.44,0,0,1,24.47,41l1-1A2.44,2.44,0,1,1,29,43.38Z"/><path class="cls-1" d="M24.49,41A2.44,2.44,0,1,1,21,37.55l1-1a2.44,2.44,0,1,1,3.45,3.45Z"/><path class="cls-1" d="M21.06,37.57a2.44,2.44,0,0,1-3.45-3.45l1-1a2.44,2.44,0,1,1,3.45,3.45Z"/><path class="cls-1" d="M17.61,34.11a2.44,2.44,0,0,1-3.45-3.45l1-1a2.44,2.44,0,0,1,3.45,3.45Z"/><line class="cls-1" x1="10" y1="31.04" x2="13.44" y2="31.04"/></g></svg>
