<svg id="Ebene_2" data-name="Ebene 2" xmlns="http://www.w3.org/2000/svg" viewBox="0 0 60 60"><defs><style>.cls-1{fill:none;stroke:#5B5D5D;stroke-miterlimit:10;}</style></defs><title>profil</title><path class="cls-1" d="M30,49.41l18.12.07a1.27,1.27,0,0,0,1.11-1.87c-1.41-2.75-5.15-7.8-14.16-10.2a.94.94,0,0,1-.65-.53,4.71,4.71,0,0,1-.23-2.26A7.53,7.53,0,0,1,35.72,31a5.59,5.59,0,0,0,1.15-2.79.47.47,0,0,1,.29-.42,2.62,2.62,0,0,0,1.66-2.65c0-1.57-.47-2.06-.79-2.22a.45.45,0,0,1-.23-.46c.21-2.09.75-12-7.8-12s-8,9.87-7.8,12a.45.45,0,0,1-.23.46c-.31.16-.79.65-.79,2.22a2.62,2.62,0,0,0,1.65,2.64.49.49,0,0,1,.3.43,5.63,5.63,0,0,0,1.18,2.83,7.26,7.26,0,0,1,1.41,3,5.12,5.12,0,0,1-.15,2.78.94.94,0,0,1-.65.53c-9,2.4-12.74,7.45-14.16,10.2a1.27,1.27,0,0,0,1.11,1.87Z"/></svg>
