<svg id="Ebene_2" data-name="Ebene 2" xmlns="http://www.w3.org/2000/svg" viewBox="0 0 60 60"><defs><style>.cls-1{fill:none;stroke:#000000;stroke-miterlimit:10;}.cls-2{fill:#000000;}</style></defs><title>sparschwein</title><g id="sparschwein"><path class="cls-1" d="M12.83,21.15a4.06,4.06,0,0,0-2.25,3.5c0,2.46,3.74,3.94,3.74,3.94"/><path class="cls-1" d="M30,16.77a5.94,5.94,0,1,0-11.42,2.78"/><path class="cls-1" d="M47.31,29.23H45.78a12.59,12.59,0,0,0-6.13-6.85c-.18-1.48-.46-4.79.45-6.71a.36.36,0,0,0-.41-.52,8.18,8.18,0,0,0-5.16,5.32,21.58,21.58,0,0,0-4.59-.5c-9,0-16.32,5.43-16.32,12.13,0,3.79,2.35,7.18,6,9.4l-1.78,3.08a2.09,2.09,0,0,0,.76,2.84l1.59.92a2.09,2.09,0,0,0,2.84-.76l2.23-3.86a21.44,21.44,0,0,0,8.37.18l2.12,3.68a2.09,2.09,0,0,0,2.84.76l1.59-.92A2.09,2.09,0,0,0,41,44.58l-1.52-2.64a13.45,13.45,0,0,0,5.68-5.43h2.18a2.12,2.12,0,0,0,2.12-2.12v-3A2.12,2.12,0,0,0,47.31,29.23Z"/><circle class="cls-2" cx="40.21" cy="30.1" r="1.51"/></g></svg>
