<svg id="Ebene_2" data-name="Ebene 2" xmlns="http://www.w3.org/2000/svg" viewBox="0 0 60 60"><defs><style>.cls-1{fill:#5B5D5D;}</style></defs><title>vorortpartner</title><g id="vorortpartner"><path class="cls-1" d="M17.83,11a6.76,6.76,0,0,1,6.75,6.75c0,5.65-4.83,12.65-6.75,15.2-1.92-2.56-6.75-9.56-6.75-15.2A6.76,6.76,0,0,1,17.83,11m0-1a7.75,7.75,0,0,0-7.75,7.75c0,7.46,7.75,16.83,7.75,16.83s7.75-9.37,7.75-16.83A7.75,7.75,0,0,0,17.83,10Z"/><path class="cls-1" d="M18.05,16.42a2.46,2.46,0,1,1-2.46,2.46,2.46,2.46,0,0,1,2.46-2.46m0-1a3.46,3.46,0,1,0,3.46,3.46,3.46,3.46,0,0,0-3.46-3.46Z"/><path class="cls-1" d="M42.17,26.38a6.76,6.76,0,0,1,6.75,6.75c0,5.65-4.83,12.65-6.75,15.2-1.92-2.56-6.75-9.56-6.75-15.2a6.76,6.76,0,0,1,6.75-6.75m0-1a7.75,7.75,0,0,0-7.75,7.75c0,7.46,7.75,16.83,7.75,16.83s7.75-9.37,7.75-16.83a7.75,7.75,0,0,0-7.75-7.75Z"/><path class="cls-1" d="M42.39,31.75a2.46,2.46,0,1,1-2.46,2.46,2.46,2.46,0,0,1,2.46-2.46m0-1a3.46,3.46,0,1,0,3.46,3.46,3.46,3.46,0,0,0-3.46-3.46Z"/></g></svg>
