<svg id="Ebene_2" data-name="Ebene 2" xmlns="http://www.w3.org/2000/svg" viewBox="0 0 60 60"><defs><style>.cls-1{fill:#5B5D5D;}.cls-2{fill:none;stroke:#5B5D5D;stroke-miterlimit:10;}</style></defs><title>vorteilsuebersicht</title><path class="cls-1" d="M45,17.09a4,4,0,0,1,4,4V38.91a4,4,0,0,1-4,4H15a4,4,0,0,1-4-4V21.09a4,4,0,0,1,4-4H45m0-1H15a5,5,0,0,0-5,5V38.91a5,5,0,0,0,5,5H45a5,5,0,0,0,5-5V21.09a5,5,0,0,0-5-5Z"/><line class="cls-2" x1="25.94" y1="37.56" x2="34.06" y2="22.44"/><rect class="cls-2" x="32" y="31.17" width="3.54" height="5.71" rx="1.77" ry="1.77"/><rect class="cls-2" x="24.46" y="23.15" width="3.54" height="5.71" rx="1.77" ry="1.77"/></svg>
